<?xml version="1.0" encoding="UTF-8" standalone="no"?>
<!-- Created with Inkscape (http://www.inkscape.org/) -->

<svg
   xmlns:dc="http://purl.org/dc/elements/1.1/"
   xmlns:cc="http://creativecommons.org/ns#"
   xmlns:rdf="http://www.w3.org/1999/02/22-rdf-syntax-ns#"
   xmlns:svg="http://www.w3.org/2000/svg"
   xmlns="http://www.w3.org/2000/svg"
   xmlns:xlink="http://www.w3.org/1999/xlink"
   xmlns:sodipodi="http://sodipodi.sourceforge.net/DTD/sodipodi-0.dtd"
   xmlns:inkscape="http://www.inkscape.org/namespaces/inkscape"
   width="744.09448"
   height="1052.3622"
   id="svg2"
   version="1.1"
   inkscape:version="0.48.4 r9939"
   sodipodi:docname="Deckblatt.svg">
  <defs
     id="defs4" />
  <sodipodi:namedview
     id="base"
     pagecolor="#ffffff"
     bordercolor="#666666"
     borderopacity="1.0"
     inkscape:pageopacity="0.0"
     inkscape:pageshadow="2"
     inkscape:zoom="0.7"
     inkscape:cx="174.21347"
     inkscape:cy="691.01072"
     inkscape:document-units="mm"
     inkscape:current-layer="layer3"
     showgrid="false"
     inkscape:window-width="1680"
     inkscape:window-height="1000"
     inkscape:window-x="0"
     inkscape:window-y="0"
     inkscape:window-maximized="1"
     showguides="false"
     inkscape:guide-bbox="true"
     units="mm"
     inkscape:snap-grids="false"
     inkscape:snap-bbox="true"
     inkscape:snap-bbox-midpoints="true"
     inkscape:snap-global="true">
    <sodipodi:guide
       orientation="0,1"
       position="-35.433071,350.7874"
       id="guide3069" />
    <sodipodi:guide
       orientation="0,1"
       position="-35.433071,701.5748"
       id="guide3071" />
    <inkscape:grid
       units="mm"
       empspacing="10"
       visible="true"
       enabled="true"
       snapvisiblegridlinesonly="true"
       type="xygrid"
       id="grid3073" />
    <sodipodi:guide
       orientation="0,1"
       position="-35.433071,526.1811"
       id="guide3079" />
    <sodipodi:guide
       orientation="0,1"
       position="-35.433071,175.3937"
       id="guide3081" />
    <sodipodi:guide
       orientation="0,1"
       position="-35.433071,876.9685"
       id="guide3083" />
    <sodipodi:guide
       orientation="0,1"
       position="-35.433071,789.27165"
       id="guide3085" />
    <sodipodi:guide
       orientation="0,1"
       position="-35.433071,613.87795"
       id="guide3087" />
    <sodipodi:guide
       orientation="0,1"
       position="-35.433071,87.69685"
       id="guide3089" />
  </sodipodi:namedview>
  <metadata
     id="metadata7">
    <rdf:RDF>
      <cc:Work
         rdf:about="">
        <dc:format>image/svg+xml</dc:format>
        <dc:type
           rdf:resource="http://purl.org/dc/dcmitype/StillImage" />
        <dc:title />
      </cc:Work>
    </rdf:RDF>
  </metadata>
  <g
     inkscape:label="Grafik"
     inkscape:groupmode="layer"
     id="layer1"
     style="display:none"
     transform="translate(0,-2.5390623e-6)"
     sodipodi:insensitive="true">
    <image
       y="96.679245"
       x="225.63217"
       id="image3031"
       xlink:href="file:///home/wolfgang/Noten/Adlgasser/Litaniae%20Lauretanae%20AWV%203.05/Deckblatt/TitelSW.png"
       height="103.19285"
       width="308.48465" />
  </g>
  <g
     inkscape:groupmode="layer"
     id="layer2"
     inkscape:label="Trace"
     style="display:none"
     transform="translate(0,-2.5390623e-6)"
     sodipodi:insensitive="true" />
  <g
     inkscape:groupmode="layer"
     id="layer3"
     inkscape:label="Deckblatt"
     transform="translate(0,-2.5390623e-6)">
    <g
       id="g3055"
       transform="translate(93.781433,248.90889)">
      <text
         sodipodi:linespacing="125%"
         id="text3047"
         y="434.14883"
         x="279.31418"
         style="font-size:16px;font-style:normal;font-variant:normal;font-weight:normal;font-stretch:normal;text-align:center;line-height:125%;letter-spacing:2.13999987px;word-spacing:0px;text-anchor:middle;fill:#000000;fill-opacity:1;stroke:none;font-family:EB Garamond 12 All SC;-inkscape-font-specification:EB Garamond 12 All SC"
         xml:space="preserve"><tspan
           y="434.14883"
           x="280.38419"
           id="tspan3049"
           sodipodi:role="line">anton cajetan</tspan></text>
      <text
         sodipodi:linespacing="125%"
         id="text3051"
         y="452.66589"
         x="277.94019"
         style="font-size:12px;font-style:normal;font-variant:normal;font-weight:normal;font-stretch:normal;text-align:center;line-height:125%;letter-spacing:5.19000053px;word-spacing:0px;text-anchor:middle;fill:#d40000;fill-opacity:1;stroke:none;font-family:EB Garamond;-inkscape-font-specification:EB Garamond"
         xml:space="preserve"><tspan
           style="font-size:20px;letter-spacing:5.19000053px;fill:#d40000"
           y="452.66589"
           x="280.53519"
           id="tspan3053"
           sodipodi:role="line">ADLGASSER</tspan></text>
    </g>
    <text
       xml:space="preserve"
       style="font-size:12px;font-style:normal;font-variant:normal;font-weight:normal;font-stretch:normal;text-align:center;line-height:110.00000238%;letter-spacing:0px;word-spacing:0px;text-anchor:middle;fill:#000000;fill-opacity:1;stroke:none;font-family:EB Garamond;-inkscape-font-specification:EB Garamond"
       x="372.3208"
       y="412.09424"
       id="text3061"
       sodipodi:linespacing="110%"><tspan
         sodipodi:role="line"
         x="372.3208"
         y="412.09424"
         id="tspan3067"
         style="font-size:14px;font-style:normal;line-height:110.00000238%;-inkscape-font-specification:EB Garamond">Litaniae Lauretanae</tspan><tspan
         sodipodi:role="line"
         x="372.3208"
         y="427.49423"
         style="font-size:14px;font-style:normal;line-height:110.00000238%;-inkscape-font-specification:EB Garamond"
         id="tspan3075" /><tspan
         sodipodi:role="line"
         x="372.3208"
         y="442.89423"
         style="font-size:14px;font-style:normal;line-height:110.00000238%;-inkscape-font-specification:EB Garamond"
         id="tspan3077">AWV 3.05</tspan></text>
    <text
       xml:space="preserve"
       style="font-size:14px;font-style:normal;font-variant:normal;font-weight:normal;font-stretch:normal;text-align:center;line-height:125%;letter-spacing:1.84000015px;word-spacing:0px;text-anchor:middle;fill:#000000;fill-opacity:1;stroke:none;font-family:EB Garamond 12 All SC;-inkscape-font-specification:EB Garamond 12 All SC"
       x="372.06738"
       y="967.76636"
       id="text3099"
       sodipodi:linespacing="125%"><tspan
         sodipodi:role="line"
         x="372.9874"
         y="967.76636"
         id="tspan3023">full score</tspan></text>
    <text
       sodipodi:linespacing="110%"
       id="text3021"
       y="876.96851"
       x="371.86884"
       style="font-size:12px;font-style:normal;font-variant:normal;font-weight:normal;font-stretch:normal;text-align:center;line-height:110.00000238%;letter-spacing:0px;word-spacing:0px;text-anchor:middle;fill:#000000;fill-opacity:1;stroke:none;font-family:EB Garamond;-inkscape-font-specification:EB Garamond"
       xml:space="preserve"><tspan
         id="tspan3032"
         style="font-size:14px;font-style:normal;line-height:110.00000238%;-inkscape-font-specification:EB Garamond"
         y="876.96851"
         x="371.86884"
         sodipodi:role="line">2 Cl / Timp / 2 Vl / SATB (soli) / SATB (coro) / BOrg</tspan></text>
    <path
       style="fill:#000000;display:inline"
       d="m 271.28851,304.3186 c -0.13203,-0.21364 -0.84285,-0.67129 -1.5796,-1.017 -1.17955,-0.5535 -1.35118,-0.80271 -1.43692,-2.08643 -0.0825,-1.23592 0.14749,-1.78197 1.5111,-3.58689 0.88466,-1.17097 2.02821,-2.3468 2.54123,-2.61296 0.93145,-0.48324 1.51551,-0.91612 2.7894,-2.06739 1.50144,-1.35692 2.91858,-1.76869 2.91858,-0.84804 0,0.30083 -0.30249,0.54696 -0.6722,0.54696 -0.36971,0 -1.37468,0.83309 -2.23326,1.85132 -1.28821,1.52775 -1.71245,1.81333 -2.42723,1.63393 -0.75908,-0.19051 -0.86618,-0.0897 -0.86618,0.81525 0,0.67139 -0.38269,1.39928 -1.09392,2.08068 -0.60165,0.57642 -1.09391,1.22693 -1.09391,1.44558 0,0.21865 0.51764,0.85176 1.15031,1.40692 0.93515,0.82058 1.36144,0.96349 2.27899,0.76402 2.16819,-0.47133 2.68484,-0.8411 3.48517,-2.49436 0.44333,-0.91579 0.96261,-1.76184 1.15397,-1.8801 0.19136,-0.11827 0.25336,-0.51297 0.13778,-0.87713 -0.1929,-0.60778 0.0532,-1.29071 2.05296,-5.69765 0.37399,-0.82417 0.67999,-1.73116 0.67999,-2.01554 0,-0.28437 0.26287,-0.89234 0.58415,-1.35103 0.69637,-0.99422 0.41417,-1.46406 -0.44906,-0.74764 -0.3365,0.27927 -0.70966,0.47035 -0.82925,0.42463 -0.11959,-0.0457 -0.79175,0.0764 -1.49368,0.27145 -1.981,0.55038 -3.89805,0.44971 -4.15433,-0.21814 -0.12174,-0.31723 -0.22133,-1.36575 -0.22133,-2.33004 0,-1.50463 0.23269,-2.06935 1.64087,-3.98223 1.59163,-2.16208 2.03423,-3.32084 1.26842,-3.32084 -0.20485,0 -0.56303,0.41825 -0.79594,0.92946 -0.354,0.77692 -0.47589,0.83583 -0.74279,0.35892 -0.40388,-0.72171 2.98524,-4.2055 4.09121,-4.2055 1.09836,0 0.9837,2.441 -0.23576,5.01871 -0.53506,1.13104 -0.99109,2.55664 -1.01338,3.16801 -0.0223,0.61137 -0.1615,1.30535 -0.30934,1.54218 -0.72953,1.16867 1.02407,0.72815 2.84253,-0.71407 0.20055,-0.15906 1.14121,-0.77026 2.09036,-1.35823 1.45559,-0.90168 1.93944,-1.51768 3.09102,-3.93521 1.23682,-2.59649 1.49898,-2.90792 2.78606,-3.30961 0.78141,-0.24388 1.46691,-0.39528 1.52332,-0.33644 0.0564,0.0588 0.15376,0.60473 0.21635,1.21308 0.0785,0.76335 -0.13667,1.35656 -0.69447,1.91435 -0.44455,0.44455 -0.80826,1.0544 -0.80826,1.35522 0,0.30083 -0.15071,0.54696 -0.3349,0.54696 -0.4832,0 -2.00616,2.57858 -1.95151,3.30417 0.0254,0.33751 -0.37165,0.80405 -0.8824,1.03676 -0.7707,0.35115 -0.89322,0.60019 -0.7204,1.4643 0.15107,0.75532 0.0128,1.21808 -0.50375,1.68552 -0.3916,0.35439 -0.71199,0.92165 -0.71199,1.26059 0,0.33893 -0.31193,0.89854 -0.69317,1.24356 -0.38124,0.34502 -0.80268,1.21109 -0.93654,1.9246 -0.24832,1.32364 -0.34407,1.57516 -1.40802,3.69837 -0.33476,0.66804 -0.60866,1.43232 -0.60866,1.69838 0,0.95172 -1.98422,4.28586 -2.89778,4.86921 -0.51201,0.32695 -1.09502,0.80253 -1.29557,1.05686 -0.47417,0.60131 -4.41476,0.98597 -4.73827,0.46252 z m 181.63461,-13.13395 c -0.48548,-0.49021 -0.98455,-0.6292 -1.72642,-0.48083 -0.76029,0.15206 -1.10513,0.0482 -1.27048,-0.38271 -0.31038,-0.80883 -1.2177,-0.74216 -2.17806,0.16005 -0.65748,0.61768 -1.33218,0.76375 -3.78962,0.82044 -2.29741,0.053 -3.08866,-0.0587 -3.41695,-0.48243 -0.23498,-0.30327 -0.87847,-0.751 -1.42999,-0.99494 -1.11527,-0.49331 -1.28637,-1.40337 -0.46739,-2.48615 0.55489,-0.73364 0.65963,-2.29695 0.24873,-3.71266 -0.2147,-0.73969 -0.32341,-0.77331 -1.14873,-0.35526 -0.58317,0.2954 -1.50278,0.37648 -2.55248,0.22507 -0.90248,-0.13018 -1.73496,-0.18365 -1.84996,-0.11882 -0.2216,0.12492 -0.69007,1.55349 -1.63849,4.99645 -0.38909,1.41251 -0.87053,2.29729 -1.4603,2.68373 -1.11359,0.72965 -1.97939,0.4121 -1.97939,-0.72598 0,-1.25317 -1.39813,-1.41758 -4.5398,-0.53384 -4.18208,1.1764 -4.46477,1.19534 -5.00202,0.33506 -0.5263,-0.84274 -1.38893,-0.99398 -2.02746,-0.35545 -0.22623,0.22623 -1.05179,0.69807 -1.83457,1.04853 -1.22253,0.54734 -1.54763,0.5683 -2.30523,0.14856 -0.4851,-0.26876 -1.70243,-0.50392 -2.70519,-0.52259 -3.53691,-0.0658 -4.68967,-0.43725 -5.08331,-1.63783 -0.19636,-0.59888 -0.38498,-1.13759 -0.41915,-1.19715 -0.0342,-0.0596 -0.77916,0.37511 -1.65551,0.96593 -1.05643,0.71222 -2.29007,1.16098 -3.66084,1.33172 -2.06574,0.2573 -2.06799,0.25651 -2.68812,-0.94268 -0.76989,-1.4888 -0.55643,-4.84511 0.40681,-6.39643 0.79064,-1.27336 2.74864,-3.41928 3.11984,-3.41928 0.14789,0 1.08834,-0.5094 2.08989,-1.13199 l 1.821,-1.132 1.84233,0.61192 c 1.01328,0.33656 2.15998,0.51111 2.54821,0.38789 1.06454,-0.33787 1.24883,0.35956 0.65071,2.46258 -0.64754,2.27677 -1.36657,6.85357 -1.13547,7.2275 0.23985,0.38808 3.80268,1.09888 4.21885,0.84167 0.19437,-0.12013 0.28582,-0.40849 0.20322,-0.6408 -0.0826,-0.23232 0.31759,-1.3585 0.88931,-2.50264 0.89401,-1.7891 0.96185,-2.12371 0.4847,-2.39074 -0.49418,-0.27656 -0.49532,-0.45284 -0.0104,-1.61333 0.49026,-1.17334 2.55443,-2.84933 3.50927,-2.84933 0.4607,0 0.44204,2.44872 -0.0208,2.73479 -0.20056,0.12395 -0.36464,0.58938 -0.36464,1.0343 0,0.44492 -0.25136,1.1678 -0.55857,1.60641 -0.82152,1.17289 -1.63278,3.67169 -1.39403,4.29385 0.26664,0.69485 1.00844,0.69185 1.58796,-0.006 0.24966,-0.30082 0.73658,-0.54695 1.08205,-0.54695 0.82789,0 1.83506,-1.14201 1.83506,-2.08074 0,-0.41089 0.24495,-0.95037 0.54434,-1.19884 0.29939,-0.24847 0.7121,-1.04798 0.91715,-1.77669 0.59538,-2.11594 3.43291,-4.78899 5.08367,-4.78899 0.70164,0 0.7564,0.13842 0.5409,1.36739 -0.13187,0.75207 -0.46748,1.73083 -0.7458,2.17501 -0.62761,1.00165 -0.64477,1.32793 -0.0502,0.95518 0.85658,-0.53704 2.09667,-0.53349 2.09667,0.006 0,0.81973 -1.57004,1.68363 -2.30863,1.27029 -0.88683,-0.49629 -2.69938,1.2896 -3.20695,3.15979 -0.21771,0.80221 -0.33745,1.53791 -0.26608,1.6349 0.17363,0.23597 1.49623,0.005 1.95295,-0.34161 0.58823,-0.44594 3.83424,-1.15059 4.21532,-0.91507 0.76594,0.47337 1.79036,-0.28034 2.15327,-1.58427 0.37563,-1.3496 0.0789,-1.93204 -1.20156,-2.35887 -0.23052,-0.0768 -0.13793,-0.47484 0.23403,-1.00588 0.33852,-0.4833 0.62147,-1.21142 0.62877,-1.61804 0.0183,-1.01579 2.44804,-2.80711 3.62185,-2.67017 0.79887,0.0932 0.93759,0.30915 1.03254,1.6073 0.1208,1.65184 0.98631,2.32908 2.97652,2.32908 0.5755,0 1.11863,0.20511 1.20695,0.4558 0.0883,0.25069 0.41647,-0.14677 0.72921,-0.88323 0.31275,-0.73647 1.08729,-1.56417 1.60184,-2.00079 1.5923,-1.35116 1.19725,-0.88935 1.68651,-1.39036 0.6103,-0.62493 1.55188,-0.9882 2.20803,-0.92171 1.16604,0.11817 2.27684,1.04353 2.58362,2.44027 0.37906,1.72584 -0.20742,2.41864 -2.83171,3.34509 l -2.36675,0.83554 -0.14425,2.06797 c -0.17617,2.52543 0.30251,3.22353 2.429,3.54241 1.48945,0.22336 2.84071,-0.33986 4.83732,-2.01625 0.24222,-0.20338 0.65244,-0.37844 0.91159,-0.38904 0.7265,-0.0297 2.4229,-3.67297 2.11335,-4.53872 -0.28397,-0.79417 0.24461,-2.7348 0.74488,-2.7348 0.70494,0 2.05724,-1.74879 2.53769,-3.28175 0.28285,-0.90248 0.61186,-1.72292 0.73114,-1.82319 0.44422,-0.37348 1.81923,-2.83675 1.81923,-3.2591 0,-0.24101 0.49227,-1.1537 1.09392,-2.02817 0.60166,-0.87447 1.09392,-1.92127 1.09392,-2.32621 0,-0.79501 2.07251,-2.95661 2.83739,-2.95937 0.82967,-0.003 0.95362,1.18363 0.30193,2.89056 -0.34978,0.91615 -0.77512,2.15801 -0.9452,2.75966 -0.17008,0.60165 -0.75318,2.24253 -1.29579,3.64639 -0.5426,1.40386 -1.10994,3.28392 -1.26076,4.17791 -0.15082,0.89399 -0.45915,1.68708 -0.68517,1.76242 -0.22603,0.0753 -0.41096,0.35954 -0.41096,0.63155 0,1.21449 6.65498,0.63363 8.70567,-0.75985 1.50813,-1.0248 3.14146,-1.15695 3.62478,-0.29329 0.2982,0.53285 0.42089,0.50884 1.15593,-0.2262 0.76399,-0.764 0.92383,-0.78881 2.25392,-0.34984 l 1.43162,0.47247 -0.98967,0.78913 c -0.90126,0.71864 -1.41124,1.87106 -1.78616,2.96108 -0.14784,0.42981 -0.0522,0.97343 -0.36101,1.22973 -0.29889,0.24805 -0.54343,0.72773 -0.54343,1.06595 0,0.33821 -0.24092,0.93345 -0.53537,1.32274 -0.80981,1.07068 -0.71358,2.34869 0.17686,2.34869 0.6935,0 4.0049,-3.06821 4.0049,-3.71078 0,-0.16421 0.57431,-1.09795 1.27624,-2.07499 0.70193,-0.97703 1.27623,-1.93683 1.27623,-2.13288 0,-0.68209 1.36668,-1.9266 2.11571,-1.9266 0.41466,0 1.17861,0.16146 1.69767,0.35881 0.77704,0.29543 0.90308,0.52087 0.71349,1.27624 -0.29636,1.1808 -0.0409,1.15526 1.60222,-0.16017 0.74987,-0.60033 2.01578,-1.18355 2.85827,-1.31685 1.36694,-0.21627 1.5399,-0.15652 1.80004,0.62179 0.15829,0.47358 0.24051,1.26799 0.1827,1.76535 -0.13358,1.14942 -1.97644,4.82184 -2.73596,5.45219 -0.3172,0.26325 -0.57672,0.67171 -0.57672,0.90769 0,0.70432 2.33999,1.34744 3.96007,1.08838 0.81488,-0.13031 1.76737,-0.12726 2.11665,0.007 0.99767,0.38284 -1.20686,1.66288 -2.86897,1.66584 -0.74263,10e-4 -1.77263,0.19485 -2.28888,0.43007 -0.718,0.32715 -1.03918,0.32715 -1.36633,0 -0.23522,-0.23522 -0.78498,-0.42767 -1.22169,-0.42767 -1.22258,0 -1.80996,-0.91768 -1.30157,-2.03348 0.23004,-0.50487 0.41825,-1.32045 0.41825,-1.81239 0,-0.64601 0.19899,-0.89444 0.71645,-0.89444 0.75918,0 1.47138,-0.98936 1.47138,-2.04399 0,-0.34836 0.27248,-0.93446 0.6055,-1.30245 0.65237,-0.72086 0.45366,-1.27227 -0.31629,-0.87766 -2.01722,1.03388 -3.2385,2.31456 -4.37591,4.58874 -0.25076,0.50138 -0.66449,1.04281 -0.9194,1.20319 -0.25492,0.16038 -0.47015,0.48856 -0.4783,0.72928 -0.008,0.24073 -0.50041,1.00579 -1.09392,1.70015 -0.5935,0.69435 -1.0791,1.4868 -1.0791,1.761 0,0.37145 -0.30212,0.43382 -1.18507,0.24466 -1.7896,-0.3834 -1.98274,0.18466 1.7288,-5.08458 0.70371,-0.99904 1.27947,-2.2379 1.27947,-2.75302 0,-0.51512 0.1969,-1.13348 0.43757,-1.37415 0.30981,-0.30981 0.32406,-0.55106 0.0488,-0.82634 -0.27528,-0.27527 -0.66841,0.0884 -1.34659,1.24561 -0.5268,0.89892 -1.46267,2.13925 -2.07972,2.75629 -0.77946,0.77947 -0.80143,1.0992 -1.12031,1.55482 -0.45412,0.64886 -0.40087,0.57404 -0.71338,0.86591 -0.18103,0.16907 -0.38163,0.21052 -0.8845,0.75315 -0.48293,0.5211 -1.41749,1.24389 -2.07679,1.6062 -0.6593,0.36231 -1.15771,0.83724 -1.10757,1.0554 0.11798,0.51336 -0.0478,0.50073 -1.52419,-0.11614 -0.67501,-0.28204 -1.39478,-0.81209 -1.59949,-1.1779 -0.32945,-0.58869 -0.51475,-0.61356 -1.61285,-0.21648 -2.87795,1.04068 -4.50465,0.41014 -4.84795,-1.87916 -0.19298,-1.28689 -0.059,-1.97363 0.69076,-3.54022 0.94773,-1.98031 0.99211,-2.57029 0.14014,-1.86322 -0.26161,0.21712 -1.37317,0.44561 -2.47012,0.50776 l -1.99447,0.11299 -0.76887,2.24611 c -0.42287,1.23536 -0.96326,3.01813 -1.20085,3.9617 -0.67475,2.67968 -1.73271,3.3623 -3.08883,1.99297 z m -51.7837,-3.63781 c 1.09829,-0.0135 4.16558,-4.1513 4.11677,-5.55359 -0.0159,-0.45791 0.0807,-1.17917 0.21479,-1.60279 0.30258,-0.956 -0.76354,-1.33066 -2.42806,-0.85328 -2.60498,0.7471 -4.31509,3.03479 -4.31509,5.7725 0,2.07104 0.31519,2.69585 1.23536,2.44886 0.42358,-0.1137 0.95289,-0.20896 1.17623,-0.2117 z m 67.96375,-2.95461 c 0,-0.3403 -0.24614,-0.71318 -0.54696,-0.82862 -0.91003,-0.34921 -0.61516,-1.23158 0.54696,-1.6367 1.16596,-0.40645 1.28409,-0.64776 0.73911,-1.50976 -0.72076,-1.14002 -4.29194,1.84873 -5.13332,4.29612 -0.53411,1.5536 -0.2665,2.18049 0.99976,2.34201 1.16554,0.14868 3.39445,-1.59998 3.39445,-2.66305 z m -13.85629,-0.53596 c 0,-0.31266 -0.16409,-0.46707 -0.36464,-0.34312 -0.20055,0.12395 -0.36464,0.37977 -0.36464,0.56848 0,0.18872 0.16409,0.34312 0.36464,0.34312 0.20055,0 0.36464,-0.25582 0.36464,-0.56848 z m -10.27199,-3.35139 c 0.40213,-0.78189 0.16687,-1.54972 -0.47485,-1.54972 -0.77639,0 -2.15569,1.30142 -1.8697,1.76415 0.40044,0.64793 1.97509,0.50392 2.34455,-0.21443 z m 12.56944,-3.38807 c 0.16228,-0.62056 0.10491,-0.67883 -0.32062,-0.32567 -0.28505,0.23657 -0.51827,0.66585 -0.51827,0.95396 0,0.7335 0.60036,0.28386 0.83889,-0.62829 z m 1.84096,-3.80187 c 0.11298,-0.29441 0.0485,-0.63227 -0.1433,-0.7508 -0.1918,-0.11854 -0.34872,0.12234 -0.34872,0.53528 0,0.88045 0.20278,0.96927 0.49202,0.21552 z m -192.07083,17.09653 c -0.33412,-0.87069 -0.26553,-1.97569 0.12263,-1.97569 0.43661,0 1.47923,1.47075 1.47923,2.08665 0,0.66866 -1.33827,0.57596 -1.60186,-0.11096 z m 236.79623,-0.52258 c -0.90128,-0.42232 -1.7709,-1.00408 -1.93247,-1.2928 -0.39181,-0.70013 -0.92425,-0.66199 -2.49247,0.17853 -2.84402,1.5243 -5.44007,1.27143 -6.21901,-0.60578 -0.23035,-0.55511 -0.44305,-1.78558 -0.47268,-2.73437 -0.0297,-0.94878 0.0879,-1.70826 0.13801,-1.89621 0.2699,-1.01317 0.34482,-0.80602 0.48953,-0.96666 0.42082,-0.46714 0.46804,-0.4401 0.64166,-0.5547 0.22738,-0.15009 0.39814,-0.59529 0.88476,-0.71743 0.48662,-0.12213 1.1684,-0.53548 1.51507,-0.91854 0.34667,-0.38307 0.8182,-0.69649 1.04783,-0.69649 0.22963,0 0.62257,-0.20511 0.87319,-0.4558 0.71213,-0.71232 2.24266,-0.60905 2.24266,0.15133 0,0.43929 -0.45899,0.7646 -1.45856,1.03375 -0.85715,0.23081 -1.45856,0.61248 -1.45856,0.92565 0,0.2931 -0.29171,0.53291 -0.64824,0.53291 -1.35392,0 -2.63876,2.59931 -1.73271,3.50536 0.27106,0.27106 0.40626,0.8239 0.30045,1.22853 -0.17359,0.66382 -0.0181,0.73569 1.5922,0.73569 1.8203,0 3.00988,-0.56379 4.20787,-1.9943 0.53684,-0.64103 0.54909,-0.79487 0.0912,-1.14533 -0.66451,-0.50856 -0.67713,-1.11302 -0.0311,-1.4914 0.27381,-0.16038 0.57485,-0.83363 0.66898,-1.49611 0.12932,-0.91023 0.008,-1.292 -0.49785,-1.56255 -0.36793,-0.19691 -0.66897,-0.60244 -0.66897,-0.90118 0,-0.71645 1.80446,-1.41897 2.32014,-0.90329 0.20801,0.208 0.90626,0.37819 1.55168,0.37819 1.922,0 2.36857,0.29324 1.85409,1.2175 -0.24125,0.43341 -0.63059,1.03414 -0.86519,1.33497 -0.2346,0.30083 -0.53844,1.69557 -0.6752,3.09943 -0.23115,2.37293 -0.18647,2.61941 0.63525,3.50411 1.28811,1.38685 3.60156,1.64523 6.53716,0.73011 1.27382,-0.3971 2.89035,-0.83135 3.59228,-0.96501 1.17399,-0.22356 1.23039,-0.19529 0.70399,0.35282 -0.95173,0.99098 -6.18655,2.77392 -8.72605,2.97203 -1.91398,0.14931 -2.68556,0.0371 -4.00886,-0.58296 z m -249.87408,-0.5261 c -1.36505,-0.28063 -2.45642,-0.77345 -3.11938,-1.4086 -0.56085,-0.53734 -1.18813,-0.97697 -1.39396,-0.97697 -0.20582,0 -0.59377,-0.41022 -0.8621,-0.91159 -0.26833,-0.50138 -0.62423,-0.9116 -0.79089,-0.9116 -0.16667,0 -0.30303,-0.2909 -0.30303,-0.64643 0,-0.35554 -0.5743,-1.51848 -1.27623,-2.58431 -0.70193,-1.06582 -1.27624,-2.07794 -1.27624,-2.24916 0,-0.61958 -0.66195,-0.6969 -1.68775,-0.19716 -1.39206,0.67818 -7.97483,1.16268 -8.31516,0.61201 -0.13752,-0.22249 -0.90607,-0.40454 -1.70791,-0.40454 -2.08987,0 -4.35759,-0.6538 -5.52158,-1.59191 -0.91461,-0.73712 -1.0094,-1.04022 -1.04387,-3.33756 -0.0366,-2.44029 0.004,-2.56203 1.18828,-3.55559 0.67441,-0.56583 2.35583,-1.59561 3.7365,-2.2884 2.18978,-1.09879 2.85689,-1.25963 5.22477,-1.25963 l 2.71446,0 2.67256,2.18383 c 1.4699,1.2011 3.24396,2.87172 3.94234,3.71248 l 1.26979,1.52866 1.16192,-0.97769 c 0.63905,-0.53773 1.28193,-0.97769 1.42863,-0.97769 0.14669,0 0.74943,-0.66886 1.33941,-1.48637 0.58999,-0.8175 1.41731,-1.92509 1.8385,-2.46131 1.17603,-1.49725 2.69828,-4.38839 2.69828,-5.12472 0,-0.36291 0.32818,-0.95682 0.72928,-1.31981 0.4011,-0.363 0.72928,-0.90879 0.72928,-1.21288 0,-0.30409 0.21534,-0.81195 0.47854,-1.12857 0.2632,-0.31661 0.78143,-1.31406 1.15163,-2.21654 1.31658,-3.2096 3.7964,-8.51089 8.4432,-18.04963 0.87929,-1.80497 1.59789,-3.73877 1.59689,-4.29734 -0.001,-0.90526 0.078,-0.97287 0.73288,-0.6224 0.5975,0.31978 0.77269,0.27111 0.93821,-0.26065 0.11194,-0.35961 0.3612,-0.94767 0.55391,-1.30679 0.1927,-0.35912 0.27169,-0.78026 0.17553,-0.93585 -0.0962,-0.1556 0.30849,-0.56842 0.89924,-0.91738 0.59075,-0.34897 1.07409,-0.78234 1.07409,-0.96307 0,-0.39143 4.01871,-4.37049 4.41404,-4.37049 0.15079,0 0.49101,-0.20723 0.75602,-0.46052 0.87791,-0.83907 3.53413,-2.50606 5.22215,-3.27731 1.64747,-0.75272 5.14659,-1.49912 5.81874,-1.2412 0.32622,0.12519 0.89273,0.8968 1.25892,1.7147 0.61308,1.36939 0.62559,1.70897 0.15797,4.29007 -0.97064,5.35759 -4.04783,9.75233 -6.64078,9.48417 l -1.13803,-0.1177 1.81584,-1.97025 c 2.38138,-2.58389 3.27528,-4.51419 3.5372,-7.63834 l 0.21417,-2.55466 -1.38373,-0.57816 c -1.2365,-0.51664 -1.44863,-0.51942 -1.99376,-0.0261 -0.33553,0.30364 -0.77394,0.55208 -0.97427,0.55208 -0.20032,0 -1.35495,0.40257 -2.56584,0.8946 -1.49649,0.60808 -2.89101,1.57337 -4.35412,3.01394 -2.11088,2.07835 -5.23844,6.42143 -5.23844,7.27434 0,0.23766 0.92743,0.8567 2.06095,1.37564 1.69114,0.77423 2.37815,0.90145 3.82871,0.70903 1.20841,-0.1603 1.76776,-0.10426 1.76776,0.17711 0,0.60415 -3.19651,0.51179 -5.85449,-0.16916 l -2.267,-0.58078 -0.86188,0.92951 c -0.47404,0.51122 -0.86188,1.14632 -0.86188,1.41134 0,0.26501 -0.32818,0.76282 -0.72928,1.10626 -0.40111,0.34343 -0.72928,0.93411 -0.72928,1.31262 0,0.37851 -0.23814,0.88584 -0.52919,1.1274 -0.51638,0.42855 -3.07667,5.48509 -4.43855,8.76608 -0.3746,0.90248 -1.13303,2.51899 -1.68539,3.59226 -0.55236,1.07326 -1.00429,2.15795 -1.00429,2.41042 0,0.25248 -0.37464,1.01523 -0.83253,1.69501 -0.93205,1.38373 -2.53099,4.95436 -2.59453,5.79395 -0.0228,0.30083 -0.53267,1.06195 -1.13312,1.69138 -1.38756,1.45454 -1.65913,1.82972 -2.55028,3.52322 -0.40111,0.76224 -1.69781,2.36715 -2.88156,3.56647 -2.40581,2.43744 -2.3913,2.1162 -0.25401,5.62217 1.93655,3.17668 2.70879,4.19335 3.18516,4.19335 0.27355,0 0.49737,0.16409 0.49737,0.36464 0,0.20055 0.21934,0.24382 0.40928,0.36464 0.68451,0.43542 0.70838,0.64401 1.79023,1.09876 0.60676,0.25505 1.04036,0.55136 1.51364,0.74189 0.94102,0.37884 1.17608,0.33988 1.79357,0.29192 0.98002,-0.0761 0.95628,0.0206 3.5097,-0.92504 1.50024,-0.55566 1.56569,-0.54777 2.45501,0.2959 0.50253,0.47672 0.91651,0.98984 0.91998,1.14025 0.0105,0.45812 -1.01388,0.30461 -1.21664,-0.18232 -0.13901,-0.33383 -0.32554,-0.2893 -0.69708,0.16642 -0.46878,0.575 -1.18221,0.82269 -4.91696,1.70711 -2.60046,0.61581 -3.92849,0.66844 -6.01953,0.23856 z m -12.0301,-12.06157 c 0.45124,-0.13987 0.81792,-0.35824 0.81485,-0.48526 -0.01,-0.39449 -0.52171,-1.02627 -0.95581,-1.17903 -0.22793,-0.0802 -0.97149,-0.88006 -1.65235,-1.77744 -1.83702,-2.42122 -4.00755,-3.82286 -5.80872,-3.75104 -1.7143,0.0684 -4.31686,1.16661 -4.3305,1.82741 -0.005,0.25069 -0.16971,0.4558 -0.36564,0.4558 -0.75642,0 -1.47548,1.68943 -1.23366,2.8985 0.25544,1.27724 1.57973,2.09842 4.09371,2.53851 1.3833,0.24216 8.18081,-0.13772 9.43812,-0.52745 z m 146.49374,11.49915 c -0.4011,-0.17236 -1.18354,-0.32492 -1.73875,-0.33901 -1.21507,-0.0309 -4.22178,-1.54683 -5.09834,-2.57057 -0.7745,-0.90455 -1.23989,-0.93065 -1.76018,-0.0987 -0.30759,0.49183 -0.87255,0.63186 -2.4644,0.61084 -1.13593,-0.015 -2.31763,0.12576 -2.626,0.31282 -0.38108,0.23116 -1.02344,0.12288 -2.00551,-0.33806 -1.30171,-0.61098 -1.45576,-0.82745 -1.55492,-2.18505 -0.0993,-1.35938 0.0256,-1.61909 1.27624,-2.65324 2.04727,-1.69292 3.75118,-2.11364 5.39708,-1.33262 0.72477,0.34393 2.35547,1.00171 3.62378,1.46175 l 2.30601,0.83642 1.59185,-1.06909 c 0.87551,-0.58801 1.73975,-1.3457 1.92052,-1.68377 0.18077,-0.33807 0.89239,-1.14155 1.58139,-1.78552 0.689,-0.64398 1.15181,-1.33414 1.02848,-1.5337 -0.12334,-0.19956 0.19387,-0.6368 0.70491,-0.97165 0.91874,-0.60198 3.63541,-4.62749 3.64639,-5.40314 0.003,-0.2207 0.45692,-0.84505 1.00843,-1.38746 1.69793,-1.66985 1.37531,-2.16747 -1.27944,-1.97344 -2.89689,0.21172 -4.23045,0.54615 -5.37522,1.34798 -0.95007,0.66546 -2.55247,1.24895 -2.55247,0.92945 0,-0.10141 0.45124,-0.6602 1.00276,-1.24174 0.70368,-0.742 1.65528,-1.20314 3.19059,-1.54617 1.20331,-0.26885 2.43396,-0.55586 2.73479,-0.63781 0.30083,-0.0819 1.42058,-0.26774 2.48833,-0.41288 1.93799,-0.26343 2.16351,-0.42736 3.18628,-2.31618 0.29864,-0.55152 0.7849,-1.00276 1.08058,-1.00276 0.29568,0 0.53759,-0.23823 0.53759,-0.52941 0,-0.29117 0.61533,-1.13169 1.3674,-1.86782 1.49366,-1.46199 5.95305,-4.53091 6.5838,-4.53091 0.2166,0 0.98023,-0.346 1.69697,-0.76888 0.89063,-0.52549 1.44552,-0.65612 1.75288,-0.41265 0.24735,0.19593 0.98082,0.3668 1.62993,0.37972 0.64912,0.0129 1.36835,0.13975 1.59829,0.28186 0.58316,0.36041 0.18092,5.85082 -0.48748,6.65399 -0.28002,0.33648 -0.70143,1.06302 -0.93646,1.61454 -0.23503,0.55151 -0.59493,1.00275 -0.79978,1.00275 -0.20485,0 -0.37246,0.20608 -0.37246,0.45795 0,0.25187 -0.53328,0.68598 -1.18508,0.96469 -0.65179,0.27871 -1.4312,0.71072 -1.73203,0.96003 -0.30083,0.24931 -1.05094,0.56019 -1.66692,0.69086 -1.4631,0.31036 -8.36821,0.35928 -8.84811,0.0627 -0.2044,-0.12633 -0.47655,0.10087 -0.60478,0.50489 -0.12823,0.40402 -0.38207,0.73457 -0.5641,0.73457 -0.18202,0 -0.67451,0.69738 -1.0944,1.54972 -0.4199,0.85234 -1.14934,2.23451 -1.62097,3.07148 -0.47163,0.83698 -0.9116,1.90354 -0.9777,2.37016 -0.0719,0.50746 -0.41324,0.89947 -0.84946,0.9755 -0.9289,0.16191 -1.84395,2.34145 -2.47345,2.87711 -0.89948,0.76539 -0.38926,0.31792 -1.71992,1.18912 -0.16779,0.10985 -0.15663,0.36464 -0.34807,0.36464 -0.19143,0 -0.74578,0.3692 -1.23188,0.82044 -0.48611,0.45124 -1.33043,1.12763 -1.87626,1.5031 -0.97063,0.66766 -0.9774,0.69769 -0.30825,1.36685 0.37631,0.3763 1.52852,0.9032 2.56047,1.17088 2.06343,0.53525 4.41818,2.25241 4.45942,3.25195 0.0212,0.51556 -0.27133,0.6332 -1.52339,0.61249 -0.85235,-0.0141 -1.87789,-0.16665 -2.279,-0.33901 z m -11.30381,-4.68212 1.45856,-0.26442 -1.2411,-0.62616 c -1.48538,-0.74941 -2.53639,-0.78001 -3.43349,-0.1 -0.64166,0.4864 -0.64166,0.51575 0,0.88891 0.7703,0.44799 1.22609,0.4624 3.21603,0.10164 z m 32.57715,-19.48468 c 0.82553,-0.54631 1.58653,-0.9933 1.69111,-0.9933 0.10457,0 0.52105,-0.33091 0.92549,-0.73536 0.49136,-0.49135 0.80644,-1.42905 0.94955,-2.82595 0.43692,-4.26464 0.44692,-4.21405 -0.88778,-4.49156 -1.43196,-0.29774 -3.42094,0.24063 -5.13252,1.38923 -0.67978,0.45618 -1.60412,0.82942 -2.05409,0.82942 -0.54697,0 -1.22502,0.54802 -2.04579,1.65346 -0.67521,0.90941 -1.68509,2.25245 -2.24417,2.98456 -0.55908,0.7321 -0.96929,1.56673 -0.9116,1.85474 0.1691,0.84403 2.44853,1.41974 5.43311,1.37223 2.36836,-0.0377 2.99602,-0.18996 4.27669,-1.03747 z M 293.32943,286.4149 c -0.30306,-0.56627 -0.29828,-1.02726 0.0186,-1.79225 0.94336,-2.27747 1.03876,-3.52864 0.31624,-4.14728 -1.47517,-1.26308 -0.37657,-2.90525 3.06757,-4.58539 1.37705,-0.67176 1.95293,-1.17992 2.08489,-1.83972 0.10027,-0.50138 0.61565,-1.75089 1.14528,-2.77669 0.52963,-1.02579 1.0712,-2.42054 1.20348,-3.09943 0.22627,-1.16119 0.16379,-1.11648 -1.05412,0.75427 -0.71206,1.09375 -1.29464,2.20356 -1.29464,2.46627 0,0.2627 -0.15211,0.76257 -0.33802,1.11081 -0.18592,0.34825 -0.43089,0.93072 -0.54439,1.2944 -0.1135,0.36368 -0.38121,0.55316 -0.59492,0.42108 -0.42309,-0.26147 -0.12416,-2.30751 0.42182,-2.88727 0.17943,-0.19053 0.32623,-0.66763 0.32623,-1.06024 0,-0.91879 2.73751,-4.47788 3.62214,-4.70921 0.37366,-0.0977 0.78273,-0.64521 0.9144,-1.22383 0.30984,-1.36156 1.14495,-2.46068 1.63806,-2.15592 0.64661,0.39962 0.44485,1.53549 -0.70502,3.9692 -0.60165,1.2734 -1.09391,2.49963 -1.09391,2.72496 0,0.22532 -0.39757,1.27884 -0.88348,2.34115 -1.75904,3.84566 -2.4146,5.8444 -2.32981,7.1034 0.0655,0.9719 -0.12151,1.45165 -0.77053,1.9772 -1.03827,0.84074 -2.21505,2.95155 -2.21505,3.97319 0,0.90716 -1.41728,2.90366 -2.06126,2.90366 -0.25606,0 -0.64916,-0.34306 -0.87356,-0.76236 z m 54.80697,0.40691 c -1.44383,-0.34276 -2.27938,-0.99528 -2.28682,-1.78587 -0.0136,-1.44458 -0.56568,-1.64662 -2.25925,-0.82678 -0.8865,0.42915 -1.84716,0.78266 -2.1348,0.78557 -0.28765,0.003 -1.18695,0.23674 -1.99846,0.51959 -0.8115,0.28285 -2.45238,0.56762 -3.64639,0.63281 l -2.17093,0.11854 0.0369,-1.62278 c 0.0203,-0.89253 0.22539,-1.68562 0.4558,-1.76242 0.23041,-0.0768 0.41893,-0.3141 0.41893,-0.52732 0,-0.21322 0.58865,-1.2745 1.3081,-2.3584 0.83552,-1.25876 1.22186,-2.19454 1.0694,-2.59022 -0.22283,-0.57827 -0.26254,-0.57703 -0.59694,0.0186 -0.35176,0.62656 -1.4176,0.90139 -1.41418,0.36463 0.001,-0.15041 0.5663,-0.88815 1.25632,-1.63942 1.08343,-1.1796 1.37611,-1.31974 2.14546,-1.02723 0.70604,0.26843 0.92074,0.65184 1.0348,1.84785 0.0792,0.83003 -0.0256,1.62046 -0.23285,1.75651 -0.20722,0.13605 -0.58015,0.57555 -0.82874,0.97665 -2.10582,3.39779 -2.22837,4.55799 -0.48142,4.55799 1.23898,0 5.06092,-0.69186 6.03835,-1.09307 0.4011,-0.16465 1.01643,-0.39113 1.36739,-0.5033 1.18264,-0.37796 0.65631,-2.07898 -1.27494,-4.12047 -1.52613,-1.61325 -1.1949,-2.50515 1.58535,-4.26879 3.07868,-1.95295 4.80112,-2.35704 6.39293,-1.49979 0.67516,0.3636 1.22756,0.87561 1.22756,1.1378 0,0.26219 0.32648,0.65143 0.72551,0.86498 1.47477,0.78928 2.39633,4.02711 1.42318,5.00026 -0.60548,0.60548 0.93816,1.30138 2.24837,1.01361 0.82784,-0.18182 1.07253,-0.10631 1.07253,0.331 0,0.86083 -2.02942,1.78965 -2.89643,1.32564 -1.03755,-0.55528 -1.09253,-0.5183 -1.88144,1.26517 -0.39922,0.90248 -0.92621,1.64087 -1.17109,1.64087 -0.24489,0 -1.04895,0.41022 -1.78679,0.9116 -0.73785,0.50138 -1.39127,0.8948 -1.45204,0.87428 -0.0608,-0.0205 -0.64278,-0.16369 -1.29334,-0.31813 z m 2.9887,-2.9722 c 1.00582,-1.19535 1.06419,-1.83823 0.17988,-1.98102 -0.28995,-0.0468 -0.9456,-0.19377 -1.45698,-0.32655 -0.75171,-0.19519 -1.0237,-0.0659 -1.42016,0.67485 -0.42279,0.78999 -0.40656,1.04421 0.11775,1.84441 0.80029,1.22139 1.41618,1.17085 2.57951,-0.21169 z m 2.51935,-4.14745 c -0.11544,-0.30082 -0.35127,-0.54696 -0.52407,-0.54696 -0.17281,0 -0.21621,-0.25531 -0.0965,-0.56737 0.12135,-0.31623 -0.0855,-0.86622 -0.46724,-1.24253 -0.37673,-0.37133 -1.01314,-1.09295 -1.41424,-1.6036 -0.80395,-1.0235 -1.95744,-1.19522 -3.7743,-0.56185 -1.27423,0.44419 -1.64395,1.78752 -0.49198,1.78752 0.36099,0 0.85393,0.19758 1.09542,0.43907 0.24148,0.24148 1.00027,0.40127 1.68619,0.35507 0.96491,-0.065 1.29886,0.079 1.47571,0.6362 0.12572,0.3961 0.54837,0.82169 0.93921,0.94574 0.39084,0.12404 0.71062,0.37857 0.71062,0.56561 0,0.18703 0.24099,0.34006 0.53552,0.34006 0.3262,0 0.45348,-0.21378 0.32563,-0.54696 z m -49.2405,6.49942 c -1.39156,-0.28396 -1.67357,-0.97661 -1.26555,-3.10839 0.20342,-1.06286 0.47294,-2.71189 0.59891,-3.66451 0.12597,-0.95262 0.3738,-1.73203 0.55073,-1.73203 0.17692,0 0.61259,-0.49248 0.96815,-1.09439 0.35556,-0.60191 0.97588,-1.19894 1.3785,-1.32672 0.40261,-0.12778 1.57202,-0.79006 2.59868,-1.47173 2.50992,-1.66649 4.13478,-1.91036 5.6308,-0.8451 0.993,0.70708 1.2659,0.75632 2.00359,0.36152 0.47566,-0.25457 1.27032,-0.35256 1.7937,-0.2212 1.60734,0.40341 1.18529,1.68717 -1.63141,4.96226 -1.84775,2.14846 -2.68822,4.37567 -1.65122,4.37567 0.31676,0 0.57593,-0.17923 0.57593,-0.39829 0,-0.65159 1.23956,-2.03285 3.25157,-3.62325 1.03944,-0.82163 2.06535,-1.87897 2.2798,-2.34964 0.22458,-0.49289 1.03379,-1.10167 1.90829,-1.43565 1.96357,-0.7499 1.90595,-0.76249 2.35096,0.51405 0.41493,1.19028 1.16307,1.40819 1.87783,0.54695 0.45841,-0.55235 2.37086,-0.73368 3.43425,-0.32562 0.86733,0.33282 0.69387,1.72937 -0.33482,2.69578 -0.50138,0.47102 -0.9116,1.00907 -0.9116,1.19568 0,0.18661 -0.41022,1.15601 -0.91159,2.15423 -0.50138,0.99823 -0.9116,1.89606 -0.9116,1.9952 0,0.0991 0.69737,0.12989 1.54971,0.0684 1.13418,-0.0819 1.54972,0.0241 1.54972,0.39538 0,1.04631 -4.40555,1.92104 -5.65191,1.1222 -0.46896,-0.30058 -0.39278,-0.63777 0.53417,-2.36457 0.59462,-1.1077 1.20995,-2.014 1.3674,-2.014 0.15745,0 0.28627,-0.23245 0.28627,-0.51654 0,-0.2841 0.45124,-0.8474 1.00276,-1.25178 0.77163,-0.56576 0.90385,-0.83556 0.57365,-1.17056 -1.09101,-1.10686 -3.83426,0.86637 -5.18528,3.72981 -0.44181,0.93639 -1.04121,1.89999 -1.332,2.14132 -0.29079,0.24134 -0.52872,0.6394 -0.52872,0.8846 0,0.24518 -0.32509,0.74 -0.72243,1.09959 -0.59122,0.53504 -0.82304,0.57031 -1.27624,0.19418 -0.73054,-0.60629 -0.69904,-0.98224 0.17548,-2.09401 0.4011,-0.50992 0.72928,-1.22678 0.72928,-1.59302 0,-0.36625 0.31379,-0.95945 0.6973,-1.31822 0.73929,-0.6916 2.06768,-3.66079 1.77069,-3.95779 -0.36341,-0.36341 -1.23224,0.29356 -2.4663,1.8649 -0.701,0.89258 -1.4765,1.62288 -1.72333,1.62288 -0.24682,0 -0.73985,0.55553 -1.09561,1.2345 -1.98899,3.79605 -5.1663,5.55447 -6.20386,3.43339 l -0.48134,-0.98402 -1.27186,0.75041 c -1.14405,0.67501 -2.08295,1.00149 -4.35822,1.51545 -0.4011,0.0906 -1.08655,0.0918 -1.52323,0.003 z m 4.25803,-2.94448 c 1.50505,-0.58503 3.64639,-2.31083 3.64639,-2.93879 0,-0.14427 0.33567,-0.88861 0.74594,-1.65408 l 0.74595,-1.39178 -0.74595,-0.19507 c -0.91445,-0.23913 -0.95552,-0.78212 -0.10782,-1.42561 0.57834,-0.43903 0.54068,-0.48549 -0.40206,-0.496 -1.42887,-0.0159 -4.5878,1.80398 -4.83926,2.78797 -0.11161,0.43673 -0.43987,0.88498 -0.72948,0.99612 -0.39439,0.15134 -0.51014,0.7986 -0.46117,2.57885 0.036,1.30724 0.16466,2.37667 0.28599,2.37651 0.12133,-1.7e-4 0.95899,-0.28732 1.86147,-0.63812 z m 77.21683,-7.2364 c -1.33738,-0.41129 -1.78053,-0.74242 -1.96218,-1.46619 -0.30243,-1.20499 0.38335,-3.48567 1.29665,-4.31219 0.68284,-0.61796 0.71219,-0.61663 0.70099,0.0318 -0.006,0.37221 0.10321,1.04432 0.24365,1.49356 0.19882,0.63602 0.0801,0.88162 -0.5362,1.10962 l -0.79153,0.29281 0.77642,0.98706 c 0.42703,0.54288 0.99055,0.98706 1.25227,0.98706 0.26171,0 0.67193,0.23627 0.91161,0.52506 0.23967,0.28879 0.79304,0.59462 1.22972,0.67962 0.56795,0.11056 0.48256,0.16146 -0.29996,0.17882 -0.60165,0.0133 -1.8713,-0.21482 -2.82144,-0.50703 z M 339.0875,264.40523 c -0.7626,-1.16389 -0.4083,-2.19688 0.94589,-2.75781 1.38189,-0.57239 2.17538,-0.004 2.17538,1.55932 0,1.9812 -2.08408,2.78143 -3.12127,1.19849 z m -93.50808,-6.0344 c -0.30083,-0.19441 -1.08024,-0.35599 -1.73204,-0.35906 -0.65179,-0.003 -1.18507,-0.16967 -1.18507,-0.37022 0,-0.20055 -0.37365,-0.36464 -0.83034,-0.36464 -1.32504,0 -3.18069,-1.93368 -3.18069,-3.31444 l 0,-1.16772 0.83992,0.87369 c 2.92229,3.03977 3.28885,3.223 6.89498,3.44674 2.26582,0.14057 4.41107,0.0299 6.48224,-0.33444 1.7026,-0.2995 3.1548,-0.48539 3.2271,-0.41308 0.36122,0.36122 -0.46523,0.87202 -1.76667,1.0919 -0.80116,0.13535 -1.45665,0.41018 -1.45665,0.61073 0,0.22391 -0.56778,0.26871 -1.47117,0.11609 -0.95938,-0.16209 -1.65705,-0.0943 -2.00551,0.19491 -0.41408,0.34366 -0.65221,0.34566 -1.058,0.009 -0.38123,-0.31639 -0.72181,-0.32853 -1.25226,-0.0447 -0.87336,0.46739 -0.82304,0.46655 -1.50584,0.0253 z m -6.92814,-6.76735 c 0,-0.31267 0.16676,-0.46542 0.37058,-0.33945 0.20383,0.12597 0.27619,0.38179 0.1608,0.56848 -0.31258,0.50577 -0.53138,0.41147 -0.53138,-0.22903 z m 0.32143,-2.4398 c -0.0784,-0.82746 0.0669,-1.53893 0.48399,-2.37015 0.89315,-1.77976 1.37055,-0.48268 0.61746,1.67762 -0.40217,1.15368 -1.02087,1.54268 -1.10145,0.69253 z m 4.13246,-8.56901 c 0.30574,-0.35097 0.62374,-0.85949 0.70668,-1.13005 0.1577,-0.51451 2.50436,-1.66815 2.48672,-1.22251 -0.006,0.14074 -0.49784,0.73447 -1.09392,1.31941 -0.59608,0.58494 -1.08379,1.20027 -1.08379,1.3674 0,0.16712 -0.3536,0.30386 -0.78579,0.30386 -0.71705,0 -0.73716,-0.0558 -0.2299,-0.63811 z m 3.63654,-3.03111 c 0.0877,-0.26322 0.37489,-0.55037 0.63811,-0.63811 0.27348,-0.0912 0.41022,0.0456 0.31906,0.31905 -0.0877,0.26323 -0.37489,0.55038 -0.63812,0.63812 -0.27347,0.0912 -0.41021,-0.0456 -0.31905,-0.31906 z m 2.11946,-1.48168 c 0,-0.53653 4.40294,-2.43881 7.08382,-3.06055 2.92451,-0.67824 7.86866,-0.61631 6.90765,0.0865 -0.33399,0.24427 -0.77907,0.33794 -0.98905,0.20816 -0.62799,-0.38811 -4.21619,-0.45677 -4.44592,-0.0851 -0.11706,0.18941 -0.6544,0.34995 -1.19408,0.35676 -0.53968,0.007 -1.63759,0.32941 -2.43979,0.7169 -0.80221,0.38749 -1.72562,0.7101 -2.05203,0.71691 -0.32641,0.007 -0.78302,0.24077 -1.0147,0.51992 -0.51587,0.62159 -1.8559,1.01182 -1.8559,0.54045 z m 17.34697,-1.60281 c -0.38646,-0.29237 -0.58837,-0.64588 -0.44868,-0.78557 0.35265,-0.35265 2.1524,0.32856 2.33701,0.88456 0.20646,0.62178 -1.02064,0.55746 -1.88833,-0.099 z"
       id="path3038"
       inkscape:connector-curvature="0"
       sodipodi:nodetypes="cscsssssscsssssscssssscccsssccsscsssssccssscsscsssssssccscssccscsscsssssssscscsssssscssssscsscscssscssssssccsscccsscscscscsssssscsscccsscsssssssscssssscsscscsssssssssscsssccssscssssssccsssssscscsssscscsscsscsscccccssscscsssssssssssscsssssccsccsscccsccssscsssssssssssccccscsssssssssccccssssssscssscsscsscsscsscscssccccccssssccsscsscssssssssssccscscsssscsssssssssscccsssccsccsccscssccssscsssssccsscsccssssscsssssscscsssssssscsssscsssssccscsccccsccccsscsssssscssscsscscsssscsscssssscsssscsscsscsssscscscccssccsssscsssscsscccscscsscsccccsssscsscccsssssssssssssssssssssscsssssssscsscssscsssscscccssscsccscccssssccccsscccsssssccssscssscssccccccsccsccscsccssssccccccsccccsccccsscs" />
  </g>
</svg>
